<svg width="800" height="800" viewBox="0 0 800 800" fill="none" xmlns="http://www.w3.org/2000/svg">
<path d="M700 400C700 565.683 565.683 700 400 700C234.317 700 100 565.683 100 400C100 234.317 234.317 100 400 100C565.683 100 700 234.317 700 400Z" fill="#E1E8ED"/>
<path d="M626 401C626 276.736 525.264 176 401 176C276.736 176 176 276.736 176 401C176 525.264 276.736 626 401 626C525.264 626 626 525.264 626 401Z" fill="url(#paint0_linear)"/>
<path d="M297.795 410.604L451.166 258.288C454.031 255.443 458.642 258.906 456.708 262.45L399.624 367.074C398.35 369.408 400.04 372.253 402.698 372.253H501.347C504.525 372.253 506.06 376.147 503.736 378.315L330.866 539.654C327.766 542.547 323.152 538.471 325.641 535.038L407.474 422.148C409.152 419.833 407.498 416.591 404.639 416.591H300.263C297.137 416.591 295.577 412.807 297.795 410.604Z" fill="white"/>
<path d="M116.667 133.333C125.871 133.333 133.333 125.871 133.333 116.667C133.333 107.462 125.871 100 116.667 100C107.462 100 100 107.462 100 116.667C100 125.871 107.462 133.333 116.667 133.333Z" fill="#99AAB5"/>
<path d="M100 116.667H133.333V233.333H100V116.667Z" fill="#99AAB5"/>
<path d="M183.333 133.333C192.538 133.333 200 125.871 200 116.667C200 107.462 192.538 100 183.333 100C174.129 100 166.667 107.462 166.667 116.667C166.667 125.871 174.129 133.333 183.333 133.333Z" fill="#99AAB5"/>
<path d="M166.667 116.667H200V233.333H166.667V116.667Z" fill="#99AAB5"/>
<path d="M250 133.333C259.205 133.333 266.667 125.871 266.667 116.667C266.667 107.462 259.205 100 250 100C240.795 100 233.333 107.462 233.333 116.667C233.333 125.871 240.795 133.333 250 133.333Z" fill="#99AAB5"/>
<path d="M233.333 116.667H266.667V233.333H233.333V116.667ZM150 333.333H216.667V666.667H150V333.333Z" fill="#99AAB5"/>
<path d="M183.333 700C201.743 700 216.667 685.076 216.667 666.667C216.667 648.257 201.743 633.333 183.333 633.333C164.924 633.333 150 648.257 150 666.667C150 685.076 164.924 700 183.333 700Z" fill="#99AAB5"/>
<path d="M600 333.333H666.667V666.667H600V333.333Z" fill="#99AAB5"/>
<path d="M633.333 700C651.743 700 666.667 685.076 666.667 666.667C666.667 648.257 651.743 633.333 633.333 633.333C614.924 633.333 600 648.257 600 666.667C600 685.076 614.924 700 633.333 700Z" fill="#99AAB5"/>
<path d="M233.333 233.333C233.333 237.754 231.577 241.993 228.452 245.118C225.326 248.244 221.087 250 216.667 250C212.246 250 208.007 248.244 204.882 245.118C201.756 241.993 200 237.754 200 233.333H166.667C166.667 237.754 164.911 241.993 161.785 245.118C158.66 248.244 154.42 250 150 250C145.58 250 141.34 248.244 138.215 245.118C135.089 241.993 133.333 237.754 133.333 233.333H100C100 297.767 116.667 350 183.333 350C250 350 266.667 297.767 266.667 233.333H233.333Z" fill="#99AAB5"/>
<path d="M250 250C259.205 250 266.667 242.538 266.667 233.333C266.667 224.128 259.205 216.667 250 216.667C240.795 216.667 233.333 224.128 233.333 233.333C233.333 242.538 240.795 250 250 250Z" fill="#99AAB5"/>
<path d="M183.333 250C192.538 250 200 242.538 200 233.333C200 224.128 192.538 216.667 183.333 216.667C174.129 216.667 166.667 224.128 166.667 233.333C166.667 242.538 174.129 250 183.333 250Z" fill="#99AAB5"/>
<path d="M116.667 250C125.871 250 133.333 242.538 133.333 233.333C133.333 224.128 125.871 216.667 116.667 216.667C107.462 216.667 100 224.128 100 233.333C100 242.538 107.462 250 116.667 250Z" fill="#99AAB5"/>
<path d="M633.333 100C650 100 666.667 116.667 666.667 150V416.667C666.667 416.667 550 450 550 283.333C550 183.333 600 100 633.333 100Z" fill="#99AAB5"/>
<defs>
<linearGradient id="paint0_linear" x1="401" y1="176" x2="401" y2="626" gradientUnits="userSpaceOnUse">
<stop stop-color="#7BCBD4"/>
<stop offset="1" stop-color="#29C6B7"/>
</linearGradient>
</defs>
</svg>
