<svg width="800" height="800" viewBox="0 0 800 800" fill="none" xmlns="http://www.w3.org/2000/svg">
<path d="M700 400C700 565.683 565.683 700 400 700C234.317 700 100 565.683 100 400C100 234.317 234.317 100 400 100C565.683 100 700 234.317 700 400Z" fill="#E1E8ED"/>
<path d="M386.264 176.121C385.296 176.209 382.217 176.517 379.446 176.737C315.531 182.498 255.663 216.98 217.745 269.978C196.631 299.446 183.126 332.872 178.023 368.278C176.22 380.637 176 384.287 176 401.044C176 417.801 176.22 421.452 178.023 433.81C190.252 518.3 250.384 589.286 331.938 615.587C346.542 620.294 361.938 623.504 379.446 625.439C386.264 626.189 415.736 626.189 422.554 625.439C452.774 622.097 478.375 614.619 503.625 601.733C507.496 599.754 508.244 599.226 507.716 598.786C507.364 598.523 490.868 576.4 471.073 549.658L435.091 501.059L390.003 434.338C365.194 397.657 344.783 367.662 344.607 367.662C344.431 367.618 344.255 397.262 344.167 433.458C344.035 496.836 343.991 499.388 343.199 500.883C342.056 503.038 341.176 503.918 339.328 504.885C337.921 505.589 336.689 505.721 330.047 505.721H322.437L320.414 504.445C319.094 503.609 318.126 502.51 317.466 501.235L316.543 499.255L316.63 411.072L316.762 322.844L318.126 321.129C318.83 320.206 320.325 319.018 321.381 318.446C323.185 317.566 323.888 317.479 331.498 317.479C340.472 317.479 341.968 317.831 344.299 320.382C344.959 321.085 369.373 357.854 398.581 402.143C427.789 446.433 467.73 506.908 487.349 536.596L522.979 590.562L524.783 589.374C540.751 578.994 557.642 564.216 571.014 548.823C599.475 516.145 617.818 476.297 623.976 433.81C625.78 421.452 626 417.801 626 401.044C626 384.287 625.78 380.637 623.976 368.278C611.748 283.788 551.616 212.802 470.061 186.501C455.677 181.839 440.37 178.628 423.214 176.693C418.991 176.253 389.915 175.769 386.264 176.121ZM478.375 312.201C480.487 313.256 482.202 315.279 482.818 317.39C483.17 318.534 483.258 342.988 483.17 398.097L483.038 477.176L469.094 455.801L455.106 434.426V376.942C455.106 339.777 455.282 318.886 455.545 317.875C456.249 315.411 457.789 313.476 459.9 312.333C461.704 311.409 462.364 311.321 469.27 311.321C475.78 311.321 476.924 311.409 478.375 312.201Z" fill="black"/>
<path d="M116.667 133.333C125.871 133.333 133.333 125.871 133.333 116.667C133.333 107.462 125.871 100 116.667 100C107.462 100 100 107.462 100 116.667C100 125.871 107.462 133.333 116.667 133.333Z" fill="#99AAB5"/>
<path d="M100 116.667H133.333V233.333H100V116.667Z" fill="#99AAB5"/>
<path d="M183.334 133.333C192.538 133.333 200 125.871 200 116.667C200 107.462 192.538 100 183.334 100C174.129 100 166.667 107.462 166.667 116.667C166.667 125.871 174.129 133.333 183.334 133.333Z" fill="#99AAB5"/>
<path d="M166.667 116.667H200V233.333H166.667V116.667Z" fill="#99AAB5"/>
<path d="M250 133.333C259.204 133.333 266.666 125.871 266.666 116.667C266.666 107.462 259.204 100 250 100C240.795 100 233.333 107.462 233.333 116.667C233.333 125.871 240.795 133.333 250 133.333Z" fill="#99AAB5"/>
<path d="M233.333 116.667H266.667V233.333H233.333V116.667ZM150 333.333H216.667V666.667H150V333.333Z" fill="#99AAB5"/>
<path d="M183.333 700C201.743 700 216.667 685.076 216.667 666.667C216.667 648.257 201.743 633.333 183.333 633.333C164.924 633.333 150 648.257 150 666.667C150 685.076 164.924 700 183.333 700Z" fill="#99AAB5"/>
<path d="M600 333.333H666.667V666.667H600V333.333Z" fill="#99AAB5"/>
<path d="M633.333 700C651.743 700 666.667 685.076 666.667 666.667C666.667 648.257 651.743 633.333 633.333 633.333C614.924 633.333 600 648.257 600 666.667C600 685.076 614.924 700 633.333 700Z" fill="#99AAB5"/>
<path d="M233.333 233.333C233.333 237.754 231.577 241.993 228.452 245.118C225.326 248.244 221.087 250 216.667 250C212.246 250 208.007 248.244 204.882 245.118C201.756 241.993 200 237.754 200 233.333H166.667C166.667 237.754 164.911 241.993 161.785 245.118C158.66 248.244 154.42 250 150 250C145.58 250 141.34 248.244 138.215 245.118C135.089 241.993 133.333 237.754 133.333 233.333H100C100 297.767 116.667 350 183.333 350C250 350 266.667 297.767 266.667 233.333H233.333Z" fill="#99AAB5"/>
<path d="M250 250C259.204 250 266.666 242.538 266.666 233.333C266.666 224.128 259.204 216.667 250 216.667C240.795 216.667 233.333 224.128 233.333 233.333C233.333 242.538 240.795 250 250 250Z" fill="#99AAB5"/>
<path d="M183.334 250C192.538 250 200 242.538 200 233.333C200 224.128 192.538 216.667 183.334 216.667C174.129 216.667 166.667 224.128 166.667 233.333C166.667 242.538 174.129 250 183.334 250Z" fill="#99AAB5"/>
<path d="M116.667 250C125.871 250 133.333 242.538 133.333 233.333C133.333 224.128 125.871 216.667 116.667 216.667C107.462 216.667 100 224.128 100 233.333C100 242.538 107.462 250 116.667 250Z" fill="#99AAB5"/>
<path d="M633.333 100C650 100 666.667 116.667 666.667 150V416.667C666.667 416.667 550 450 550 283.333C550 183.333 600 100 633.333 100Z" fill="#99AAB5"/>
</svg>
